<?xml version="1.0" encoding="UTF-8"?>
<svg xmlns="http://www.w3.org/2000/svg" xmlns:xlink="http://www.w3.org/1999/xlink" width="810pt" height="809.999993pt" viewBox="0 0 810 809.999993" version="1.2">
<defs>
<clipPath id="clip1">
  <path d="M 90 25 L 729.09375 25 L 729.09375 792 L 90 792 Z M 90 25 "/>
</clipPath>
<clipPath id="clip2">
  <path d="M 187.671875 159.507812 L 621.855469 159.507812 L 621.855469 709.257812 L 187.671875 709.257812 Z M 187.671875 159.507812 "/>
</clipPath>
</defs>
<g id="surface1">
<g clip-path="url(#clip1)" clip-rule="nonzero">
<path style=" stroke:none;fill-rule:nonzero;fill:rgb(21.958923%,71.369934%,100%);fill-opacity:1;" d="M 409.664062 25.722656 C 233.242188 25.722656 90.230469 161.40625 90.230469 344.980469 C 90.230469 631.007812 409.664062 791.945312 409.664062 791.945312 C 409.664062 791.945312 729.09375 631.007812 729.09375 344.980469 C 729.09375 161.40625 586.085938 25.722656 409.664062 25.722656 Z M 409.664062 25.722656 "/>
</g>
<g clip-path="url(#clip2)" clip-rule="nonzero">
<path style=" stroke:none;fill-rule:nonzero;fill:rgb(100%,100%,100%);fill-opacity:1;" d="M 404.8125 215.636719 C 493.734375 215.636719 565.839844 287.820312 565.839844 376.890625 C 565.839844 465.914062 493.734375 538.097656 404.8125 538.097656 C 315.839844 538.097656 243.734375 465.914062 243.734375 376.890625 C 243.734375 287.820312 315.839844 215.636719 404.8125 215.636719 Z M 404.8125 159.507812 C 284.882812 159.507812 187.671875 256.828125 187.671875 376.890625 C 187.769531 468.304688 245.003906 549.90625 330.855469 581.046875 L 404.8125 709.257812 L 478.816406 580.949219 C 564.621094 549.808594 621.804688 468.253906 621.902344 376.890625 C 621.902344 256.828125 524.742188 159.507812 404.8125 159.507812 "/>
</g>
<path style=" stroke:none;fill-rule:nonzero;fill:rgb(100%,100%,100%);fill-opacity:1;" d="M 358.011719 292.066406 C 357.230469 292.066406 356.5 292.457031 356.011719 293.042969 C 356.011719 293.042969 346.847656 304.5625 337.632812 318.617188 C 333 325.644531 328.417969 333.355469 324.90625 340.628906 C 321.398438 347.949219 318.960938 354.78125 318.960938 360.589844 C 318.960938 382.257812 336.511719 399.878906 358.15625 399.878906 C 379.753906 399.878906 397.351562 382.257812 397.351562 360.589844 C 397.351562 354.78125 394.867188 347.898438 391.355469 340.628906 C 387.796875 333.308594 383.164062 325.644531 378.535156 318.617188 C 369.273438 304.511719 360.007812 293.042969 360.007812 293.042969 C 359.519531 292.40625 358.789062 292.066406 358.011719 292.066406 "/>
<path style=" stroke:none;fill-rule:nonzero;fill:rgb(100%,100%,100%);fill-opacity:1;" d="M 451.320312 353.855469 C 450.539062 353.902344 449.808594 354.246094 449.320312 354.832031 C 449.320312 354.832031 440.109375 366.347656 430.941406 380.40625 C 426.3125 387.433594 421.726562 395.144531 418.21875 402.417969 C 414.707031 409.738281 412.222656 416.570312 412.222656 422.378906 C 412.222656 444.046875 429.820312 461.667969 451.46875 461.667969 C 473.0625 461.667969 490.664062 444.046875 490.664062 422.378906 C 490.664062 416.570312 488.175781 409.738281 484.667969 402.417969 C 481.15625 395.144531 476.476562 387.433594 471.84375 380.40625 C 462.582031 366.347656 453.320312 354.832031 453.320312 354.832031 C 452.832031 354.246094 452.101562 353.855469 451.320312 353.855469 "/>
</g>
</svg>
