<?xml version="1.0" encoding="UTF-8"?>
<svg xmlns="http://www.w3.org/2000/svg" xmlns:xlink="http://www.w3.org/1999/xlink" width="810pt" height="809.999993pt" viewBox="0 0 810 809.999993" version="1.2">
<defs>
<clipPath id="clip1">
  <path d="M 104 19.570312 L 705 19.570312 L 705 790.570312 L 104 790.570312 Z M 104 19.570312 "/>
</clipPath>
<clipPath id="clip2">
  <path d="M 236 126 L 574.238281 126 L 574.238281 531.75 L 236 531.75 Z M 236 126 "/>
</clipPath>
</defs>
<g id="surface1">
<path style=" stroke:none;fill-rule:nonzero;fill:rgb(31.759644%,81.17981%,52.938843%);fill-opacity:1;" d="M 404.894531 785.820312 C 403.84375 785.820312 402.804688 785.476562 401.933594 784.789062 C 401.207031 784.203125 328.097656 725.605469 256.003906 639.605469 C 189.234375 559.960938 109.636719 439.804688 109.636719 319.632812 C 109.636719 156.804688 242.089844 24.320312 404.894531 24.320312 C 567.699219 24.320312 700.140625 156.804688 700.140625 319.632812 C 700.140625 444.820312 620.542969 564.722656 553.765625 643.265625 C 481.640625 728.082031 408.515625 784.289062 407.78125 784.84375 C 406.925781 785.496094 405.914062 785.820312 404.894531 785.820312 "/>
<g clip-path="url(#clip1)" clip-rule="nonzero">
<path style=" stroke:none;fill-rule:nonzero;fill:rgb(0%,50.19989%,21.569824%);fill-opacity:1;" d="M 404.894531 19.566406 C 324.765625 19.566406 249.421875 50.78125 192.75 107.457031 C 136.089844 164.136719 104.882812 239.496094 104.882812 319.632812 C 104.882812 373.566406 120.496094 431.886719 151.296875 492.984375 C 175.71875 541.445312 209.71875 591.804688 252.355469 642.660156 C 324.765625 729.019531 398.238281 787.917969 398.972656 788.503906 C 400.707031 789.886719 402.804688 790.574219 404.894531 790.574219 C 406.925781 790.574219 408.960938 789.921875 410.667969 788.625 C 411.402344 788.066406 484.9375 731.546875 557.386719 646.335938 C 600.046875 596.167969 634.070312 545.941406 658.5 497.050781 C 689.289062 435.453125 704.894531 375.765625 704.894531 319.632812 C 704.894531 239.496094 673.695312 164.136719 617.027344 107.457031 C 560.367188 50.78125 485.03125 19.566406 404.894531 19.566406 Z M 404.894531 29.074219 C 565.332031 29.074219 695.390625 159.179688 695.390625 319.632812 C 695.390625 559.179688 404.894531 781.066406 404.894531 781.066406 C 404.894531 781.066406 114.386719 549.496094 114.386719 319.632812 C 114.386719 159.179688 244.453125 29.074219 404.894531 29.074219 "/>
</g>
<path style=" stroke:none;fill-rule:nonzero;fill:rgb(100%,100%,100%);fill-opacity:1;" d="M 404.894531 535.21875 C 284.917969 535.21875 187.3125 437.585938 187.3125 317.59375 C 187.3125 197.585938 284.917969 99.964844 404.894531 99.964844 C 524.871094 99.964844 622.476562 197.585938 622.476562 317.59375 C 622.476562 437.585938 524.871094 535.21875 404.894531 535.21875 "/>
<path style=" stroke:none;fill-rule:nonzero;fill:rgb(0%,50.19989%,21.569824%);fill-opacity:1;" d="M 404.894531 95.214844 C 282.300781 95.214844 182.558594 194.96875 182.558594 317.59375 C 182.558594 440.207031 282.300781 539.972656 404.894531 539.972656 C 527.488281 539.972656 627.226562 440.207031 627.226562 317.59375 C 627.226562 194.96875 527.488281 95.214844 404.894531 95.214844 Z M 404.894531 104.71875 C 522.4375 104.71875 617.722656 200.039062 617.722656 317.59375 C 617.722656 435.164062 522.4375 530.464844 404.894531 530.464844 C 287.359375 530.464844 192.066406 435.164062 192.066406 317.59375 C 192.066406 200.039062 287.359375 104.71875 404.894531 104.71875 "/>
<g clip-path="url(#clip2)" clip-rule="nonzero">
<path style=" stroke:none;fill-rule:nonzero;fill:rgb(0%,50.19989%,21.569824%);fill-opacity:1;" d="M 534.5625 376.210938 L 533.585938 376.210938 C 530.152344 376.210938 526.957031 374.839844 524.445312 372.488281 C 525.953125 360.628906 526.824219 348.554688 526.824219 336.507812 L 526.824219 316.933594 L 533.847656 302.882812 C 536.28125 298.046875 541.113281 295.0625 546.5 295.0625 C 554.292969 295.0625 560.632812 301.402344 560.632812 309.566406 C 560.632812 330.011719 555.796875 350.457031 546.660156 368.738281 C 544.363281 373.359375 539.714844 376.210938 534.5625 376.210938 Z M 504.320312 405.773438 C 502.046875 395.917969 498.007812 385.5625 492.511719 375.5 L 513.195312 339.28125 C 513.089844 350.878906 512.296875 362.503906 510.710938 373.886719 C 509.234375 384.691406 507.066406 395.335938 504.320312 405.773438 Z M 443.226562 508.398438 C 431.605469 514.816406 418.425781 518.226562 405.113281 518.226562 C 380.417969 518.226562 357.753906 506.8125 342.9375 487.53125 C 360.132812 498.253906 381.65625 504.699219 405.113281 504.699219 C 428.566406 504.699219 450.121094 498.226562 467.316406 487.503906 C 460.792969 495.984375 452.628906 503.167969 443.226562 508.398438 Z M 297.03125 339.28125 L 317.710938 375.5 C 312.246094 385.484375 308.230469 395.785156 305.933594 405.613281 C 303.183594 395.046875 300.914062 384.429688 299.488281 373.863281 C 297.929688 362.503906 297.136719 350.878906 297.03125 339.28125 Z M 276.640625 376.210938 L 275.664062 376.210938 C 270.511719 376.210938 265.863281 373.359375 263.566406 368.738281 C 254.425781 350.457031 249.59375 330.011719 249.59375 309.195312 C 249.59375 301.402344 255.933594 295.0625 263.722656 295.0625 C 269.113281 295.0625 273.945312 298.046875 276.375 302.882812 L 283.402344 316.933594 L 283.402344 336.507812 C 283.402344 348.554688 284.246094 360.652344 285.777344 372.488281 C 283.269531 374.839844 280.074219 376.210938 276.640625 376.210938 Z M 287.734375 213.226562 C 293.835938 202.898438 302.605469 196.636719 313.804688 194.46875 C 310.449219 198.300781 307.253906 202.238281 304.375 206.464844 C 290.664062 226.644531 283.402344 250.261719 283.402344 274.773438 L 283.402344 283.070312 C 276.007812 258.609375 277.484375 230.632812 287.734375 213.226562 Z M 432.160156 139.523438 C 456.882812 139.523438 477.246094 158.570312 479.304688 182.769531 C 473.652344 185.277344 460.316406 190.136719 435.566406 194.285156 C 413.195312 198.011719 374.554688 197.851562 349.460938 193.890625 C 321.277344 189.476562 300.253906 167.128906 297.296875 139.523438 Z M 520.695312 211.191406 C 532.765625 229.496094 532.925781 257.15625 526.824219 279.742188 L 526.824219 274.773438 C 526.824219 249.308594 519.03125 224.953125 504.347656 204.402344 C 501.96875 200.996094 499.355469 197.773438 496.632812 194.683594 C 506.800781 196.847656 514.886719 202.367188 520.695312 211.191406 Z M 405.113281 315.351562 C 372.308594 315.351562 344.125 336.457031 325.847656 362.476562 L 296.925781 311.863281 L 296.925781 274.773438 C 296.925781 252.980469 303.371094 232.007812 315.574219 214.042969 C 318.796875 209.316406 322.492188 204.929688 326.402344 200.785156 C 332.898438 203.847656 339.898438 206.09375 347.347656 207.253906 C 361.160156 209.421875 378.410156 210.503906 395.179688 210.503906 C 410.898438 210.503906 426.191406 209.554688 437.785156 207.625 C 458.914062 204.085938 472.332031 200.042969 480.285156 197.007812 C 480.707031 197.429688 481.183594 197.851562 481.605469 198.273438 C 485.832031 202.5 489.765625 207.175781 493.332031 212.222656 C 506.378906 230.5 513.300781 252.136719 513.300781 274.773438 L 513.300781 311.863281 L 484.378906 362.476562 C 466.101562 336.457031 437.917969 315.351562 405.113281 315.351562 Z M 478.59375 399.855469 L 484.484375 389.527344 C 489.898438 401.308594 493.015625 413.195312 493.015625 423.550781 C 493.015625 460.847656 453.582031 491.175781 405.113281 491.175781 C 356.644531 491.175781 317.210938 460.847656 317.210938 423.550781 C 317.210938 413.195312 320.328125 401.308594 325.742188 389.527344 L 331.632812 399.855469 L 343.359375 393.144531 L 333.296875 375.550781 C 349.222656 350.324219 375.425781 328.875 405.113281 328.875 C 434.800781 328.875 461.003906 350.324219 476.929688 375.550781 L 466.867188 393.144531 Z M 558.757812 374.785156 C 568.847656 354.628906 574.15625 332.097656 574.15625 309.195312 C 574.15625 293.953125 561.742188 281.539062 546.5 281.539062 C 544.308594 281.539062 542.167969 281.855469 540.109375 282.328125 C 546.738281 256.628906 546.078125 225.113281 532 203.742188 C 522.941406 190.007812 509.417969 182.054688 492.671875 180.445312 C 489.449219 149.878906 463.539062 126 432.160156 126 L 290.164062 126 C 286.4375 126 283.402344 129.039062 283.402344 132.761719 C 283.402344 152.230469 290.769531 170.035156 303.027344 183.480469 C 291.800781 187.574219 282.609375 195.289062 276.085938 206.359375 C 264.570312 225.933594 262.296875 255.175781 269.269531 282.144531 C 267.476562 281.773438 265.625 281.539062 263.722656 281.539062 C 248.484375 281.539062 236.070312 293.953125 236.070312 309.566406 C 236.070312 332.097656 241.40625 354.628906 251.46875 374.785156 C 256.0625 384.003906 265.335938 389.738281 275.664062 389.738281 L 276.640625 389.738281 C 280.628906 389.738281 284.433594 388.785156 287.917969 387.175781 C 289.609375 396.660156 291.773438 406.140625 294.496094 415.546875 C 301.839844 441.195312 312.773438 465.710938 326.957031 488.402344 C 343.914062 515.558594 373.125 531.75 405.113281 531.75 C 420.722656 531.75 436.175781 527.761719 449.777344 520.207031 C 463.457031 512.625 475.054688 501.609375 483.269531 488.402344 C 502.8125 457.152344 515.835938 423.128906 522.253906 387.148438 C 525.742188 388.785156 529.570312 389.738281 533.585938 389.738281 L 534.5625 389.738281 C 544.890625 389.738281 554.160156 384.003906 558.757812 374.785156 "/>
</g>
<path style=" stroke:none;fill-rule:nonzero;fill:rgb(0%,50.19989%,21.569824%);fill-opacity:1;" d="M 440.902344 374.230469 L 450.464844 364.667969 C 420.800781 335.003906 389.421875 335.003906 359.761719 364.667969 L 369.324219 374.230469 C 393.753906 349.796875 416.46875 349.796875 440.902344 374.230469 "/>
<path style=" stroke:none;fill-rule:nonzero;fill:rgb(0%,50.19989%,21.569824%);fill-opacity:1;" d="M 452.445312 382.976562 L 357.78125 382.976562 L 357.78125 396.5 L 452.445312 396.5 L 452.445312 382.976562 "/>
<path style=" stroke:none;fill-rule:nonzero;fill:rgb(0%,50.19989%,21.569824%);fill-opacity:1;" d="M 337.496094 423.550781 L 472.730469 423.550781 L 472.730469 410.023438 L 337.496094 410.023438 L 337.496094 423.550781 "/>
<path style=" stroke:none;fill-rule:nonzero;fill:rgb(0%,50.19989%,21.569824%);fill-opacity:1;" d="M 344.257812 450.601562 L 465.96875 450.601562 L 465.96875 437.074219 L 344.257812 437.074219 L 344.257812 450.601562 "/>
<path style=" stroke:none;fill-rule:nonzero;fill:rgb(0%,50.19989%,21.569824%);fill-opacity:1;" d="M 378.066406 477.648438 L 432.160156 477.648438 L 432.160156 464.125 L 378.066406 464.125 L 378.066406 477.648438 "/>
<path style=" stroke:none;fill-rule:nonzero;fill:rgb(0%,50.19989%,21.569824%);fill-opacity:1;" d="M 313.035156 295.695312 L 321.382812 306.34375 C 326.902344 302.035156 332.582031 299.105469 338.339844 297.308594 C 337.8125 298.707031 337.496094 300.238281 337.496094 301.824219 C 337.496094 309.273438 343.570312 315.351562 351.019531 315.351562 C 358.46875 315.351562 364.542969 309.273438 364.542969 301.824219 C 364.542969 300.238281 364.226562 298.707031 363.695312 297.308594 C 369.457031 299.105469 375.132812 302.035156 380.652344 306.34375 L 389 295.695312 C 364.859375 276.835938 337.179688 276.835938 313.035156 295.695312 "/>
<path style=" stroke:none;fill-rule:nonzero;fill:rgb(0%,50.19989%,21.569824%);fill-opacity:1;" d="M 414.460938 295.960938 L 422.808594 306.605469 C 428.328125 302.300781 434.007812 299.367188 439.765625 297.546875 C 439.238281 298.972656 438.921875 300.476562 438.921875 302.0625 C 438.921875 309.539062 444.996094 315.585938 452.445312 315.585938 C 459.894531 315.585938 465.96875 309.539062 465.96875 302.0625 C 465.96875 300.476562 465.652344 298.972656 465.121094 297.546875 C 470.882812 299.367188 476.558594 302.300781 482.078125 306.605469 L 490.425781 295.960938 C 466.285156 277.074219 438.605469 277.074219 414.460938 295.960938 "/>
<path style=" stroke:none;fill-rule:nonzero;fill:rgb(0%,50.19989%,21.569824%);fill-opacity:1;" d="M 314.171875 255.199219 L 320.246094 267.300781 C 335.648438 259.585938 353.554688 259.082031 369.375 265.847656 L 388.921875 274.21875 L 394.257812 261.804688 L 374.710938 253.429688 C 355.21875 245.058594 333.164062 245.71875 314.171875 255.199219 "/>
<path style=" stroke:none;fill-rule:nonzero;fill:rgb(0%,50.19989%,21.569824%);fill-opacity:1;" d="M 440.847656 265.976562 C 456.671875 259.191406 474.578125 259.71875 489.976562 267.429688 L 496.050781 255.332031 C 477.089844 245.847656 455.03125 245.1875 435.515625 253.535156 L 415.96875 261.910156 L 421.304688 274.351562 L 440.847656 265.976562 "/>
</g>
</svg>
